<svg width="128" height="128" viewBox="0 0 128 128" fill="none" xmlns="http://www.w3.org/2000/svg">
<circle cx="64" cy="64" r="64" fill="#D9D9D9"/>
<path d="M64 0C28.6538 0 0 28.6538 0 64L48.75 44L81.25 2.35162C75.7621 0.819265 69.9767 0 64 0Z" fill="#AE315A"/>
<path d="M0 63.9999C0 66.8817 0.190467 69.719 0.559499 72.4999C1.64377 80.6707 4.26954 88.3546 8.13494 95.2499L72 72.4999L117.092 28.2499C108.703 15.8151 96.0596 6.4868 81.25 2.35156L48.75 43.9999L0 63.9999Z" fill="#C13752"/>
<path d="M128 64C128 50.7594 123.979 38.458 117.092 28.25L72.0001 72.5L8.13501 95.25C9.19731 97.145 10.3532 98.9804 11.5965 100.75C17.9679 109.818 26.6335 117.158 36.7501 121.926L82.5001 107.75L127.223 74C127.735 70.7417 128 67.4019 128 64Z" fill="#D53C49"/>
<path d="M41.75 124.026C48.68 126.596 56.176 128 64 128C94.4482 128 119.93 106.737 126.408 78.25C126.726 76.8502 126.998 75.433 127.223 74L82.5 107.75L36.75 121.926C38.3802 122.694 40.048 123.395 41.75 124.026Z" fill="#C13752"/>
<rect x="64" y="61.1764" width="55" height="4" transform="rotate(-45 64 61.1764)" fill="#FFDDFE"/>
<rect x="4" y="61" width="16" height="6" fill="#FFDDFE"/>
<rect x="61" y="20" width="16" height="6" transform="rotate(-90 61 20)" fill="#FFDDFE"/>
<rect x="124" y="67" width="16" height="6" transform="rotate(-180 124 67)" fill="#FFDDFE"/>
<rect x="67" y="108" width="16" height="6" transform="rotate(90 67 108)" fill="#FFDDFE"/>
</svg>
